<svg xmlns="http://www.w3.org/2000/svg" width="427" height="369" viewBox="0 0 427 369">
  <metadata><?xpacket begin="﻿" id="W5M0MpCehiHzreSzNTczkc9d"?>
<x:xmpmeta xmlns:x="adobe:ns:meta/" x:xmptk="Adobe XMP Core 5.6-c138 79.159824, 2016/09/14-01:09:01">
   <rdf:RDF xmlns:rdf="http://www.w3.org/1999/02/22-rdf-syntax-ns#">
      <rdf:Description rdf:about=""/>
   </rdf:RDF>
</x:xmpmeta>
                                                                                                    
                                                                                                    
                                                                                                    
                                                                                                    
                                                                                                    
                                                                                                    
                                                                                                    
                                                                                                    
                                                                                                    
                                                                                                    
                                                                                                    
                                                                                                    
                                                                                                    
                                                                                                    
                                                                                                    
                                                                                                    
                                                                                                    
                                                                                                    
                                                                                                    
                                                                                                    
                           
<?xpacket end="w"?></metadata>
<defs>
    <style>
      .cls-1 {
        fill: #616f86;
        fill-rule: evenodd;
      }
    </style>
  </defs>
  <path class="cls-1" d="M350.366,463.949H292.344a28.673,28.673,0,0,0-28.791,28.5v44.041a28.673,28.673,0,0,0,28.791,28.5h58.022a28.673,28.673,0,0,0,28.791-28.5V492.447A28.673,28.673,0,0,0,350.366,463.949Zm7.851,72.539a7.837,7.837,0,0,1-7.851,7.772H292.344a7.836,7.836,0,0,1-7.854-7.772V492.447a7.836,7.836,0,0,1,7.854-7.773h58.022a7.835,7.835,0,0,1,7.851,7.773v44.041ZM474,383.9A9.55,9.55,0,0,0,472.6,378.8l-63.52-110.538A10.546,10.546,0,0,0,400.009,263H120.9a10.373,10.373,0,0,0-9.076,5.266L48.392,378.8A10.411,10.411,0,0,0,47,383.9a60.6,60.6,0,0,0,36.644,55.441v182.3A10.449,10.449,0,0,0,94.113,632H426.8a10.446,10.446,0,0,0,10.467-10.363v-181a4.633,4.633,0,0,0-.085-1.123A60.778,60.778,0,0,0,474,383.9ZM127.007,283.81H393.9l49.645,86.442H77.447ZM350.888,390.891a40.314,40.314,0,0,1-79.222,0h79.222Zm-101.471,0a40.368,40.368,0,0,1-79.31,0h79.31Zm-180.78,0h79.308A40.366,40.366,0,0,1,68.637,390.891ZM222.894,611.273h-60.2V499.44a14.837,14.837,0,0,1,14.92-14.766H208.06a14.838,14.838,0,0,1,14.921,14.766V611.273h-0.087Zm193.432,0H243.833V499.44a35.731,35.731,0,0,0-35.859-35.491h-30.45a35.731,35.731,0,0,0-35.86,35.491V611.36H104.582V444.432c1.22,0.087,2.444.087,3.667,0.087a61.343,61.343,0,0,0,50.779-26.772,61.542,61.542,0,0,0,101.557,0,61.378,61.378,0,0,0,101.384,0,61.339,61.339,0,0,0,50.779,26.772c1.221,0,2.356-.087,3.578-0.087V611.273h0Zm-3.578-187.479a40.107,40.107,0,0,1-39.612-32.817h79.312A40.353,40.353,0,0,1,412.748,423.794Z" transform="translate(-47 -263)"/>
</svg>
