<svg xmlns="http://www.w3.org/2000/svg" width="81" height="78" viewBox="0 0 81 78">
  <metadata><?xpacket begin="﻿" id="W5M0MpCehiHzreSzNTczkc9d"?>
<x:xmpmeta xmlns:x="adobe:ns:meta/" x:xmptk="Adobe XMP Core 5.6-c138 79.159824, 2016/09/14-01:09:01        ">
   <rdf:RDF xmlns:rdf="http://www.w3.org/1999/02/22-rdf-syntax-ns#">
      <rdf:Description rdf:about=""/>
   </rdf:RDF>
</x:xmpmeta>
                                                                                                    
                                                                                                    
                                                                                                    
                                                                                                    
                                                                                                    
                                                                                                    
                                                                                                    
                                                                                                    
                                                                                                    
                                                                                                    
                                                                                                    
                                                                                                    
                                                                                                    
                                                                                                    
                                                                                                    
                                                                                                    
                                                                                                    
                                                                                                    
                                                                                                    
                                                                                                    
                           
<?xpacket end="w"?></metadata>
<defs>
    <style>
      .cls-1 {
        fill: #44c4f3;
        fill-rule: evenodd;
      }
    </style>
  </defs>
  <path id="total-products" class="cls-1" d="M618.446,307.988a1.614,1.614,0,0,0-2.072-.954l-16.781,6.185a1.612,1.612,0,0,0,.558,3.125,1.633,1.633,0,0,0,.559-0.1l16.781-6.185A1.612,1.612,0,0,0,618.446,307.988Zm-21.395,7.886a1.614,1.614,0,0,0-2.072-.954l-0.711.262a1.612,1.612,0,1,0,1.117,3.024l0.711-.262A1.611,1.611,0,0,0,597.051,315.874Zm21.395-14.453a1.613,1.613,0,0,0-2.072-.954l-13.262,4.887a1.612,1.612,0,0,0,.559,3.125,1.632,1.632,0,0,0,.558-0.1l13.262-4.888A1.611,1.611,0,0,0,618.446,301.421Zm0-6.5a1.614,1.614,0,0,0-2.072-.954l-13.262,4.888a1.612,1.612,0,1,0,1.117,3.024l13.262-4.888A1.611,1.611,0,0,0,618.446,294.921Zm5.5-29.491L585.059,251.1a1.616,1.616,0,0,0-1.118,0L545.055,265.43v0A1.6,1.6,0,0,0,544,266.943v46.113a1.612,1.612,0,0,0,1.055,1.512L583.941,328.9a1.6,1.6,0,0,0,1.117,0h0l38.886-14.332A1.612,1.612,0,0,0,625,313.056V266.943A1.613,1.613,0,0,0,623.945,265.43Zm-41.059,59.645-35.659-13.143V269.255l7.261,2.677V291.46a1.611,1.611,0,0,0,1.055,1.512l17.426,6.423a1.614,1.614,0,0,0,2.172-1.512V279.544l7.745,2.854v42.677h0Zm-10.972-46.721V295.57l-14.2-5.233V273.121ZM560.763,270.8l12.765-4.705,12.765,4.705-12.765,4.7Zm23.737,8.762-6.328-2.332,13.341-4.918a1.611,1.611,0,0,0,0-3.024l-17.427-6.423a1.613,1.613,0,0,0-1.117,0l-16.885,6.224-5.809-2.141L584.5,254.328l34.225,12.615Zm37.273,32.375-35.659,13.143V282.4l35.659-13.143v42.677Z" transform="translate(-544 -251)"/>
</svg>
