<svg xmlns="http://www.w3.org/2000/svg" width="82" height="75" viewBox="0 0 82 75">
  <metadata><?xpacket begin="﻿" id="W5M0MpCehiHzreSzNTczkc9d"?>
<x:xmpmeta xmlns:x="adobe:ns:meta/" x:xmptk="Adobe XMP Core 5.6-c138 79.159824, 2016/09/14-01:09:01        ">
   <rdf:RDF xmlns:rdf="http://www.w3.org/1999/02/22-rdf-syntax-ns#">
      <rdf:Description rdf:about=""/>
   </rdf:RDF>
</x:xmpmeta>
                                                                                                    
                                                                                                    
                                                                                                    
                                                                                                    
                                                                                                    
                                                                                                    
                                                                                                    
                                                                                                    
                                                                                                    
                                                                                                    
                                                                                                    
                                                                                                    
                                                                                                    
                                                                                                    
                                                                                                    
                                                                                                    
                                                                                                    
                                                                                                    
                                                                                                    
                                                                                                    
                           
<?xpacket end="w"?></metadata>
<defs>
    <style>
      .cls-1 {
        fill: #f79420;
        fill-rule: evenodd;
      }
    </style>
  </defs>
  <path id="total-orders" class="cls-1" d="M624.633,270.75V252H545.367v18.75H544v49.9a6.424,6.424,0,0,0,6.481,6.35h69.04A6.423,6.423,0,0,0,626,320.65v-49.9h-1.367Zm-3.416,0-7.08-9.249,6.962-6.823h0.8V270.75h-0.683Zm-62.184,0v-9.375c0-.032-0.016-0.062-0.019-0.094a1.435,1.435,0,0,0-.049-0.25,1.168,1.168,0,0,0-.037-0.168c-0.012-.029-0.037-0.052-0.05-0.081a1.259,1.259,0,0,0-.141-0.2,1.321,1.321,0,0,0-.106-0.151l-5.865-5.749h64.468l-5.866,5.749a1.621,1.621,0,0,0-.105.151,1.246,1.246,0,0,0-.139.2c-0.015.029-.038,0.05-0.052,0.081a1.23,1.23,0,0,0-.037.168,1.189,1.189,0,0,0-.049.25c0,0.032-.019.062-0.019,0.094v9.375H559.033Zm-6.833,0,4.1-5.359v5.359h-4.1Zm61.5-5.359,4.1,5.359h-4.1v-5.359Zm-65.6-10.713h0.8l6.962,6.823-7.08,9.249H548.1V254.678Zm75.167,65.972a3.714,3.714,0,0,1-3.748,3.671H550.481a3.714,3.714,0,0,1-3.748-3.671V273.428h76.534V320.65ZM601.4,281.464a1.354,1.354,0,0,0-1.367,1.339v8.036a15.036,15.036,0,0,1-30.066,0V282.8a1.367,1.367,0,0,0-2.734,0v8.036a17.771,17.771,0,0,0,35.534,0V282.8A1.354,1.354,0,0,0,601.4,281.464ZM571.333,282.8a1.367,1.367,0,0,0,2.734,0,5.468,5.468,0,0,0-10.934,0,1.367,1.367,0,0,0,2.734,0A2.734,2.734,0,0,1,571.333,282.8Zm30.067-5.357a5.419,5.419,0,0,0-5.467,5.357,1.367,1.367,0,0,0,2.734,0,2.734,2.734,0,0,1,5.466,0,1.367,1.367,0,0,0,2.734,0A5.419,5.419,0,0,0,601.4,277.446Z" transform="translate(-544 -252)"/>
</svg>
