<?xml version="1.0" encoding="utf-8"?>
<!-- Generator: Adobe Illustrator 16.0.0, SVG Export Plug-In . SVG Version: 6.00 Build 0)  -->
<!DOCTYPE svg PUBLIC "-//W3C//DTD SVG 1.1//EN" "http://www.w3.org/Graphics/SVG/1.1/DTD/svg11.dtd">
<svg version="1.1" id="Layer_1" xmlns="http://www.w3.org/2000/svg" xmlns:xlink="http://www.w3.org/1999/xlink" x="0px" y="0px"
	 width="48px" height="48px" viewBox="0 0 48 48" enable-background="new 0 0 48 48" xml:space="preserve">
<g>
	
		<circle fill="none" stroke="#000000" stroke-width="2" stroke-linecap="round" stroke-linejoin="round" stroke-miterlimit="10" cx="24.07" cy="14.887" r="5.556"/>
	<path fill="none" stroke="#000000" stroke-width="2" stroke-linecap="round" stroke-linejoin="round" stroke-miterlimit="10" d="
		M34.613,30.418c0-3.506-1.713-6.61-4.346-8.526c-1.399,1.906-3.65,3.149-6.197,3.149s-4.798-1.244-6.199-3.149
		c-2.632,1.917-4.343,5.021-4.343,8.526c0,0.341,0.017,7.921,0.048,8.251h20.987C34.595,38.339,34.613,30.759,34.613,30.418z"/>
	
		<circle fill="none" stroke="#000000" stroke-width="2" stroke-linecap="round" stroke-linejoin="round" stroke-miterlimit="10" cx="9.018" cy="17.937" r="4.226"/>
	<path fill="none" stroke="#000000" stroke-width="2" stroke-linecap="round" stroke-linejoin="round" stroke-miterlimit="10" d="
		M14.735,25.04c-0.31-0.314-0.646-0.605-1.004-0.866c-1.064,1.451-2.776,2.396-4.713,2.396c-1.938,0-3.65-0.945-4.714-2.396
		C2.302,25.633,1,27.993,1,30.659c0,0.259,0.013,4.137,0.037,4.39h10.862h1.345"/>
	
		<circle fill="none" stroke="#000000" stroke-width="2" stroke-linecap="round" stroke-linejoin="round" stroke-miterlimit="10" cx="38.982" cy="17.937" r="4.225"/>
	<path fill="none" stroke="#000000" stroke-width="2" stroke-linecap="round" stroke-linejoin="round" stroke-miterlimit="10" d="
		M33.265,25.04c0.31-0.314,0.646-0.605,1.003-0.866c1.065,1.451,2.778,2.396,4.714,2.396c1.938,0,3.648-0.945,4.714-2.396
		C45.697,25.633,47,27.993,47,30.659c0,0.259-0.015,4.137-0.038,4.39H36.101h-1.344"/>
</g>
</svg>
