<svg xmlns="http://www.w3.org/2000/svg" width="40" height="29" viewBox="0 0 40 29">                                                                                  
  <path id="CRM" class="cls-1" d="M39.813,10.01L32.055,2.423a0.649,0.649,0,0,0-.9,0L27.272,6.216a0.615,0.615,0,0,0,0,.884l0.387,0.378-0.889.869a2.031,2.031,0,0,1-2.229.383,5.656,5.656,0,0,0-2.278-.481,5.6,5.6,0,0,0-2.642.66,4.4,4.4,0,0,0-2.5.13,2.022,2.022,0,0,1-2.11-.433l-1.6-1.562,0.19-.186a0.615,0.615,0,0,0,0-.884L9.725,2.182a0.649,0.649,0,0,0-.9,0L0.186,10.628a0.615,0.615,0,0,0,0,.884L4.065,15.3a0.649,0.649,0,0,0,.9,0L5.2,15.079l1.126,1.1a1.9,1.9,0,0,1,.545,1,9.744,9.744,0,0,0,2.779,5.16l0.212,0.208A2.212,2.212,0,0,0,9.9,25.688a2.319,2.319,0,0,0,1.626.658c0.038,0,.076,0,0.115,0a2.217,2.217,0,0,0,.669,1.7,2.311,2.311,0,0,0,1.626.659h0.051a2.217,2.217,0,0,0,.671,1.639,2.336,2.336,0,0,0,3.252,0c0.037-.036.071-0.073,0.1-0.11a2.195,2.195,0,0,0,.707.118,2.154,2.154,0,0,0,1.519-.616,2.088,2.088,0,0,0,.485-0.728L20.8,29.069a2.184,2.184,0,0,0,3.037,0,2.086,2.086,0,0,0,.5-0.755A2.189,2.189,0,0,0,27.11,28.1a2.07,2.07,0,0,0,.569-1.983,2.145,2.145,0,0,0,1.087-.573,2.066,2.066,0,0,0,.233-2.7l0.513-.5A9.739,9.739,0,0,0,32.3,17.118a1.677,1.677,0,0,1,.488-0.895L34.7,14.36l0.335,0.328a0.649,0.649,0,0,0,.9,0l3.879-3.794A0.615,0.615,0,0,0,39.813,10.01ZM4.517,13.98l-2.975-2.91L9.273,3.507l2.976,2.91ZM12.252,24.8a1.039,1.039,0,0,1-1.445,0,0.984,0.984,0,0,1,0-1.413,1.039,1.039,0,0,1,1.445,0A0.985,0.985,0,0,1,12.252,24.8Zm2.41,2.357a1.038,1.038,0,0,1-1.445,0,0.985,0.985,0,0,1,0-1.413,1.039,1.039,0,0,1,1.445,0A0.985,0.985,0,0,1,14.662,27.161Zm2.348,2.3a1.038,1.038,0,0,1-1.445,0,0.985,0.985,0,0,1,0-1.413,1.039,1.039,0,0,1,1.445,0A0.985,0.985,0,0,1,17.01,29.458Zm10.851-4.8a0.883,0.883,0,0,1-1.23,0l-6.2-6.06a0.649,0.649,0,0,0-.9,0,0.615,0.615,0,0,0,0,.884l6.676,6.529a0.838,0.838,0,0,1,0,1.2,0.886,0.886,0,0,1-1.231,0l-1.126-1.1L23.83,26.1l-0.006-.005-5.177-5.063a0.649,0.649,0,0,0-.9,0,0.615,0.615,0,0,0,0,.884l5.194,5.08a0.837,0.837,0,0,1-.009,1.195,0.884,0.884,0,0,1-1.23,0l-5.632-5.508a0.649,0.649,0,0,0-.9,0,0.615,0.615,0,0,0,0,.884l4.175,4.083,0,0a0.837,0.837,0,0,1,0,1.2,0.873,0.873,0,0,1-.615.249,0.908,0.908,0,0,1-.165-0.015,2.216,2.216,0,0,0-.647-1.923,2.311,2.311,0,0,0-1.626-.659H16.237a2.216,2.216,0,0,0-.671-1.639,2.311,2.311,0,0,0-1.626-.659l-0.115,0a2.217,2.217,0,0,0-.669-1.7,2.334,2.334,0,0,0-2.144-.6l-0.458-.448a8.507,8.507,0,0,1-2.426-4.505,3.135,3.135,0,0,0-.9-1.658L6.1,14.195l6.407-6.266,1.6,1.562a3.3,3.3,0,0,0,2.305.922,3.417,3.417,0,0,0,1.144-.2,3.078,3.078,0,0,1,.558-0.14l-3.956,3.869a2.467,2.467,0,0,0,0,3.544,2.607,2.607,0,0,0,3.624,0l1.987-1.943,0.538,0.526h0l0.022,0.022,0.021,0.021h0l0.018,0.017,7.491,7.326A0.838,0.838,0,0,1,27.861,24.661Zm4.024-9.321a2.911,2.911,0,0,0-.842,1.557,8.5,8.5,0,0,1-2.437,4.562l-0.491.48-4.042-3.953c0.088,0.006.176,0.01,0.265,0.01a3.324,3.324,0,0,0,1.245-.237,0.62,0.62,0,0,0,.349-0.815A0.644,0.644,0,0,0,25.1,16.6c-1.644.658-3.615-1.155-3.835-1.364l-0.011-.01-0.023-.022h0l-0.02-.019h0l-0.538-.527,0.61-.6a0.615,0.615,0,0,0,0-.884,0.649,0.649,0,0,0-.9,0l-1.06,1.037h0L16.879,16.6a1.306,1.306,0,0,1-1.817,0,1.237,1.237,0,0,1,0-1.777l4.207-4.115a4.239,4.239,0,0,1,.774-0.6A4.287,4.287,0,0,1,22.263,9.5a4.345,4.345,0,0,1,1.75.369,3.336,3.336,0,0,0,3.66-.637l0.889-.87,5.229,5.114Zm3.6-1.978-6.855-6.7L31.6,3.748l6.855,6.7ZM36.126,10.3a0.625,0.625,0,1,1-.639.625A0.632,0.632,0,0,1,36.126,10.3Zm-31.942.617a0.625,0.625,0,1,1-.639.625A0.632,0.632,0,0,1,4.184,10.922Z" transform="translate(0 -2)"/>
</svg>
