<svg xmlns="http://www.w3.org/2000/svg" width="33" height="30" viewBox="0 0 33 30">
  <path id="DASHBOARD" class="cls-1" d="M36.773,16.093L20.93,2.162a0.65,0.65,0,0,0-.861,0L4.227,16.093a0.674,0.674,0,0,0-.186.738,0.658,0.658,0,0,0,.616.434H8.64V31.333A0.662,0.662,0,0,0,9.3,32H31.7a0.662,0.662,0,0,0,.657-0.667V17.265h3.983a0.658,0.658,0,0,0,.616-0.434A0.674,0.674,0,0,0,36.773,16.093ZM24.852,30.618h-8.7V19.271a4.353,4.353,0,1,1,8.7,0V30.618h0ZM31.7,15.93a0.662,0.662,0,0,0-.657.667V30.665H26.167V19.271a5.668,5.668,0,1,0-11.334,0V30.665H9.955V16.6A0.662,0.662,0,0,0,9.3,15.93H6.42L20.5,3.549,34.58,15.93H31.7Zm-9.184,5.345a1.833,1.833,0,1,0,1.805,1.832A1.821,1.821,0,0,0,22.519,21.275Zm0,2.331a0.5,0.5,0,1,1,.491-0.5A0.495,0.495,0,0,1,22.519,23.605ZM19.62,6.371A0.651,0.651,0,0,0,18.693,6.3l-0.309.267a0.674,0.674,0,0,0-.074.941,0.65,0.65,0,0,0,.927.075l0.309-.267A0.674,0.674,0,0,0,19.62,6.371ZM17.691,8.039a0.651,0.651,0,0,0-.927-0.075L9.819,13.969a0.674,0.674,0,0,0-.074.941,0.65,0.65,0,0,0,.927.075L17.617,8.98A0.674,0.674,0,0,0,17.691,8.039Z" transform="translate(-4 -2)"/>
</svg>
