<?xml version="1.0" encoding="iso-8859-1"?>
<!-- Generator: Adobe Illustrator 18.0.0, SVG Export Plug-In . SVG Version: 6.00 Build 0)  -->
<!DOCTYPE svg PUBLIC "-//W3C//DTD SVG 1.1//EN" "http://www.w3.org/Graphics/SVG/1.1/DTD/svg11.dtd">
<svg xmlns="http://www.w3.org/2000/svg" xmlns:xlink="http://www.w3.org/1999/xlink" version="1.1" id="Capa_1" x="0px" y="0px" viewBox="0 0 355.707 355.707" style="enable-background:new 0 0 355.707 355.707;" xml:space="preserve" width="512px" height="512px">
<g>
	<path d="M152.687,79.161c-5.523,0-10,4.477-10,10v80.5H91.981c-5.523,0-10,4.477-10,10v5c0,5.522,4.477,10,10,10h65.706   c5.523,0,10-4.478,10-10v-95.5c0-5.523-4.477-10-10-10H152.687z" fill="#616f86"/>
	<path d="M196.997,308.965l0.052-0.392c0.001-0.025,0.003-0.05,0.005-0.075v-10.314c-13.064,4.402-27.044,6.792-41.573,6.792   C83.534,304.976,25,246.441,25,174.494c0-71.947,58.534-130.48,130.481-130.48c65.819,0,120.402,48.989,129.225,112.418   c8.968,0.127,17.493,0.762,25.413,1.845c-8.136-78.14-74.381-139.263-154.637-139.263C69.749,19.014,0,88.762,0,174.494   s69.749,155.481,155.481,155.481c15.745,0,30.947-2.36,45.28-6.732c-2.45-3.259-3.765-6.756-3.765-10.425L196.997,308.965z" fill="#616f86"/>
	<path d="M207.054,190.278c0,9.971,28.276,23.877,74.326,23.877c46.051,0,74.327-13.906,74.327-23.877   c0-9.97-28.276-23.877-74.327-23.877C235.33,166.401,207.054,180.309,207.054,190.278z M282.979,179.384l0.695,1.344   c4.161,0.097,8.335,0.478,11.673,1.076c0.966,0.175,1.42,0.57,1.019,0.887l-2.916,2.281c-0.404,0.316-1.512,0.432-2.478,0.258   c-2.402-0.43-6.212-0.679-9.263-0.603c-3.212,0.08-8.486,0.532-7.872,1.717c0.602,1.168,2.548,1.559,10.953,2.202   c7.177,0.548,18.023,1.379,20.041,5.479c1.336,2.583-3.131,4.681-11.465,5.458l0.729,1.413c0.186,0.359-0.499,0.669-1.528,0.696   l-7.452,0.186c-1.029,0.024-2.014-0.245-2.201-0.605l-0.764-1.483c-5.11-0.271-10.076-1.023-13.829-2.107   c-0.841-0.243-1.021-0.655-0.403-0.921l4.49-1.92c0.297-0.129,0.744-0.202,1.239-0.211c0.497-0.008,1.003,0.054,1.407,0.169   c2.737,0.79,7.278,1.277,11.046,1.182c3.068-0.075,8.111-0.497,7.542-1.596c-0.487-0.993-2.197-1.316-10.163-1.925   c-7.406-0.568-18.594-1.425-20.823-5.738c-1.271-2.459,2.519-4.491,9.947-5.402l-0.806-1.558c-0.185-0.359,0.499-0.67,1.527-0.696   l7.454-0.186C281.809,178.756,282.792,179.025,282.979,179.384z" fill="#616f86"/>
	<path d="M207.054,206.938v20.313v0.019v4.505c1.202,9.911,29.223,23.215,74.268,23.215c46.051,0,74.329-13.906,74.329-23.877   l0.035-24.157c-15.203,11.261-45.394,17.2-74.305,17.2C252.455,224.155,222.249,218.21,207.054,206.938z" fill="#616f86"/>
	<path d="M207.054,288.661v20.293c0,0.085-0.021,0.165-0.025,0.249c-0.007,0.141-0.014,0.279-0.032,0.417l-0.001,3.198   c0,9.969,28.276,23.875,74.325,23.875c46.051,0,74.329-13.906,74.329-23.877l0.035-24.223   c-15.184,11.286-45.415,17.241-74.364,17.241C252.434,305.835,222.268,299.904,207.054,288.661z" fill="#616f86"/>
	<path d="M207.054,247.815v20.281v0.03v4.493c1.202,9.911,29.223,23.215,74.268,23.215c46.051,0,74.329-13.906,74.329-23.876   l0.035-24.211c-15.184,11.286-45.415,17.241-74.364,17.241C252.434,264.989,222.268,259.059,207.054,247.815z" fill="#616f86"/>
</g>
<g>
</g>
<g>
</g>
<g>
</g>
<g>
</g>
<g>
</g>
<g>
</g>
<g>
</g>
<g>
</g>
<g>
</g>
<g>
</g>
<g>
</g>
<g>
</g>
<g>
</g>
<g>
</g>
<g>
</g>
</svg>
