<svg xmlns="http://www.w3.org/2000/svg" width="34" height="29" viewBox="0 0 34 29">
  <path id="STORES" class="cls-1" d="M27.156,17.793h-4.62a2.269,2.269,0,0,0-2.292,2.24v3.461a2.269,2.269,0,0,0,2.292,2.24h4.62a2.269,2.269,0,0,0,2.293-2.24V20.033A2.269,2.269,0,0,0,27.156,17.793Zm0.625,5.7a0.62,0.62,0,0,1-.625.611h-4.62a0.62,0.62,0,0,1-.625-0.611V20.033a0.62,0.62,0,0,1,.625-0.611h4.62a0.62,0.62,0,0,1,.625.611v3.461ZM37,11.5a0.743,0.743,0,0,0-.111-0.4L31.831,2.414A0.842,0.842,0,0,0,31.109,2H8.884a0.827,0.827,0,0,0-.723.414L3.111,11.1A0.809,0.809,0,0,0,3,11.5a4.762,4.762,0,0,0,2.918,4.357V30.186A0.827,0.827,0,0,0,6.752,31h26.49a0.827,0.827,0,0,0,.834-0.814V15.96a0.352,0.352,0,0,0-.007-0.088A4.776,4.776,0,0,0,37,11.5ZM9.371,3.636H30.622l3.953,6.794H5.425ZM27.2,12.051a3.218,3.218,0,0,1-6.308,0H27.2Zm-8.08,0a3.222,3.222,0,0,1-6.315,0h6.315Zm-14.395,0h6.315A3.222,3.222,0,0,1,4.723,12.051Zm12.283,17.32H12.212V20.582a1.174,1.174,0,0,1,1.188-1.16h2.425a1.174,1.174,0,0,1,1.188,1.16v8.789H17.006Zm15.4,0H18.673V20.582a2.827,2.827,0,0,0-2.855-2.789H13.393a2.827,2.827,0,0,0-2.855,2.789v8.8H7.585V16.259c0.1,0.007.195,0.007,0.292,0.007a4.9,4.9,0,0,0,4.043-2.1,4.937,4.937,0,0,0,8.087,0,4.924,4.924,0,0,0,8.073,0,4.9,4.9,0,0,0,4.043,2.1c0.1,0,.188-0.007.285-0.007V29.371h0ZM32.123,14.637a3.183,3.183,0,0,1-3.154-2.579h6.315A3.2,3.2,0,0,1,32.123,14.637Z" transform="translate(-3 -2)"/>
</svg>
