<?xml version="1.0" encoding="iso-8859-1"?>
<svg xmlns="http://www.w3.org/2000/svg" xmlns:xlink="http://www.w3.org/1999/xlink" version="1.1" viewBox="0 0 43.997 43.997" enable-background="new 0 0 43.997 43.997" width="512px" height="512px">
  <g>
    <g>
      <path fill-rule="evenodd" d="m42.71,.306c-0.408-0.408-1.07-0.408-1.479,0l-4.232,4.234-4.232-4.233c-0.212-0.211-0.491-0.311-0.768-0.303-0.276-0.008-0.556,0.092-0.768,0.303l-4.232,4.233-4.232-4.233c-0.212-0.211-0.491-0.311-0.768-0.303-0.276-0.008-0.556,0.092-0.768,0.303l-4.232,4.233-4.232-4.233c-0.212-0.211-0.491-0.311-0.768-0.303-0.277-0.008-0.556,0.092-0.768,0.303l-4.232,4.233-4.233-4.234c-0.408-0.408-1.07-0.408-1.479-5.55112e-17-0.225,0.227-0.313,0.529-0.288,0.824v36.829c-0.024,0.296 0.063,0.599 0.289,0.825l4.911,4.91c0.22,0.22 0.513,0.317 0.8,0.301 0.287,0.017 0.58-0.081 0.8-0.301l4.2-4.2 4.2,4.2c0.22,0.22 0.513,0.317 0.8,0.301 0.287,0.017 0.58-0.081 0.8-0.301l4.2-4.2 4.2,4.2c0.22,0.22 0.513,0.317 0.8,0.301 0.287,0.017 0.58-0.081 0.8-0.301l4.2-4.2 4.2,4.2c0.22,0.22 0.513,0.317 0.8,0.301 0.287,0.017 0.58-0.081 0.8-0.301l4.911-4.91c0.226-0.227 0.314-0.529 0.289-0.825v-36.829c0.024-0.295-0.064-0.597-0.289-0.824zm-1.711,37.234l-4,4-4.232-4.233c-0.212-0.211-0.491-0.311-0.768-0.303-0.276-0.008-0.556,0.092-0.768,0.303l-4.232,4.233-4.232-4.233c-0.212-0.211-0.491-0.311-0.768-0.303-0.276-0.008-0.556,0.092-0.768,0.303l-4.232,4.233-4.232-4.233c-0.212-0.211-0.491-0.311-0.768-0.303-0.277-0.008-0.556,0.092-0.768,0.303l-4.232,4.233-4-4v-34.045l3.2,3.2c0.22,0.22 0.513,0.317 0.8,0.301 0.287,0.017 0.58-0.081 0.8-0.301l4.2-4.2 4.2,4.2c0.22,0.22 0.513,0.317 0.8,0.301 0.287,0.017 0.58-0.081 0.8-0.301l4.2-4.2 4.2,4.2c0.22,0.22 0.513,0.317 0.8,0.301 0.287,0.017 0.58-0.081 0.8-0.301l4.2-4.2 4.2,4.2c0.22,0.22 0.513,0.317 0.8,0.301 0.287,0.017 0.58-0.081 0.8-0.301l3.2-3.2v34.045zm-32-22.523c-0.553,0-1,0.447-1,1s0.447,1 1,1c0.553,0 1-0.447 1-1s-0.448-1-1-1zm4,2h14c0.553,0 1-0.447 1-1s-0.447-1-1-1h-14c-0.553,0-1,0.447-1,1s0.447,1 1,1zm-4,4c-0.553,0-1,0.447-1,1s0.447,1 1,1c0.553,0 1-0.447 1-1s-0.448-1-1-1zm22,0h-18c-0.553,0-1,0.447-1,1s0.447,1 1,1h18c0.553,0 1-0.447 1-1s-0.448-1-1-1zm-22,6c-0.553,0-1,0.447-1,1s0.447,1 1,1c0.553,0 1-0.447 1-1s-0.448-1-1-1zm20,0h-16c-0.553,0-1,0.447-1,1s0.447,1 1,1h16c0.553,0 1-0.447 1-1s-0.448-1-1-1z" fill="#616f86"/>
    </g>
  </g>
</svg>
