<?xml version="1.0" encoding="iso-8859-1"?>
<!-- Generator: Adobe Illustrator 19.0.0, SVG Export Plug-In . SVG Version: 6.00 Build 0)  -->
<svg xmlns="http://www.w3.org/2000/svg" xmlns:xlink="http://www.w3.org/1999/xlink" version="1.1" id="Layer_1" x="0px" y="0px" viewBox="0 0 512 512" style="enable-background:new 0 0 512 512;" xml:space="preserve" width="512px" height="512px">
<g>
	<g>
		<path d="M226.133,469.333H55.467V409.6c0-4.71-3.823-8.533-8.533-8.533c-4.71,0-8.533,3.823-8.533,8.533v68.267    c0,4.71,3.823,8.533,8.533,8.533h179.2c4.71,0,8.533-3.823,8.533-8.533S230.844,469.333,226.133,469.333z" fill="#6a768c"/>
	</g>
</g>
<g>
	<g>
		<path d="M46.933,366.933c-4.71,0-8.533,3.823-8.533,8.533S42.223,384,46.933,384h0.085c4.71,0,8.491-3.823,8.491-8.533    S51.644,366.933,46.933,366.933z" fill="#6a768c"/>
	</g>
</g>
<g>
	<g>
		<path d="M394.3,139.034L257.766,2.5c-1.596-1.604-3.772-2.5-6.033-2.5h-204.8C42.223,0,38.4,3.823,38.4,8.533v332.8    c0,4.71,3.823,8.533,8.533,8.533c4.71,0,8.533-3.823,8.533-8.533V17.067H243.2v128c0,4.71,3.823,8.533,8.533,8.533h128v76.8    c0,4.71,3.823,8.533,8.533,8.533s8.533-3.823,8.533-8.533v-85.333C396.8,142.805,395.904,140.629,394.3,139.034z M260.267,136.533    V29.133l107.401,107.401H260.267z" fill="#6a768c"/>
	</g>
</g>
<g>
	<g>
		<path d="M345.6,256c-70.579,0-128,57.421-128,128s57.421,128,128,128s128-57.421,128-128S416.179,256,345.6,256z M345.6,494.933    c-61.167,0-110.933-49.766-110.933-110.933S284.433,273.067,345.6,273.067S456.533,322.833,456.533,384    S406.767,494.933,345.6,494.933z" fill="#6a768c"/>
	</g>
</g>
<g>
	<g>
		<path d="M429.286,378.957c-22.272-31.138-51.994-48.29-83.686-48.29s-61.406,17.143-83.678,48.29    c-2.005,2.807-2.125,6.682-0.324,9.626c21.709,35.319,51.132,54.904,82.859,55.151c0.205,0,0.41,0,0.614,0    c31.872,0,61.841-19.524,84.454-55.04C431.411,385.741,431.317,381.798,429.286,378.957z M345.6,349.867    c9.395,0,17.032,7.637,17.032,17.033c0,9.395-7.637,17.033-17.032,17.033c-9.395,0-17.033-7.646-17.033-17.033    S336.205,349.867,345.6,349.867z M410.01,387.081c-18.526,25.626-41.327,39.586-64.947,39.586c-0.162,0-0.316,0-0.469,0    c-23.424-0.188-45.747-14.148-63.556-39.543c-1.109-1.587-1.033-3.84,0.205-5.333c8.678-10.513,18.398-18.662,28.732-24.38    c1.271-0.7,2.825,0.495,2.483,1.911c-1.988,8.09-1.237,17.212,6.016,27.341c3.866,5.402,9.054,9.668,15.275,12.006    c23.748,8.917,45.986-9.088,45.986-31.735c0-3.115-0.768-5.291-1.348-7.893c-0.307-1.374,1.289-2.483,2.526-1.809    c10.411,5.7,20.19,13.858,28.937,24.422C411.102,383.181,411.17,385.476,410.01,387.081z" fill="#6a768c"/>
	</g>
</g>
<g>
</g>
<g>
</g>
<g>
</g>
<g>
</g>
<g>
</g>
<g>
</g>
<g>
</g>
<g>
</g>
<g>
</g>
<g>
</g>
<g>
</g>
<g>
</g>
<g>
</g>
<g>
</g>
<g>
</g>
</svg>
