<svg xmlns="http://www.w3.org/2000/svg" width="94" height="76" viewBox="0 0 105 76">
  <metadata><?xpacket begin="﻿" id="W5M0MpCehiHzreSzNTczkc9d"?>
<x:xmpmeta xmlns:x="adobe:ns:meta/" x:xmptk="Adobe XMP Core 5.6-c138 79.159824, 2016/09/14-01:09:01        ">
   <rdf:RDF xmlns:rdf="http://www.w3.org/1999/02/22-rdf-syntax-ns#">
      <rdf:Description rdf:about=""/>
   </rdf:RDF>
</x:xmpmeta>
                                                                                                    
                                                                                                    
                                                                                                    
                                                                                                    
                                                                                                    
                                                                                                    
                                                                                                    
                                                                                                    
                                                                                                    
                                                                                                    
                                                                                                    
                                                                                                    
                                                                                                    
                                                                                                    
                                                                                                    
                                                                                                    
                                                                                                    
                                                                                                    
                                                                                                    
                                                                                                    
                           
<?xpacket end="w"?></metadata>
<defs>
    <style>
      .cls-1 {
        fill: #3fc97b;
        fill-rule: evenodd;
      }
    </style>
  </defs>
  <path id="total-sales" class="cls-1" d="M629.62,252H539.38a7.341,7.341,0,0,0-7.38,7.284v61.432A7.341,7.341,0,0,0,539.38,328h90.24a7.341,7.341,0,0,0,7.38-7.284V259.284A7.341,7.341,0,0,0,629.62,252Zm3.88,68.716a3.859,3.859,0,0,1-3.88,3.829H539.38a3.858,3.858,0,0,1-3.88-3.829V259.284a3.859,3.859,0,0,1,3.88-3.83h90.24a3.86,3.86,0,0,1,3.88,3.83v61.432ZM560,302.091H544.25a1.727,1.727,0,1,0,0,3.454H560A1.727,1.727,0,1,0,560,302.091Zm22.75,0H567a1.727,1.727,0,1,0,0,3.454h15.75A1.727,1.727,0,1,0,582.75,302.091ZM546,310.727h-1.75a1.728,1.728,0,1,0,0,3.455H546A1.728,1.728,0,1,0,546,310.727Zm10.5,0H553a1.728,1.728,0,1,0,0,3.455h3.5A1.728,1.728,0,1,0,556.5,310.727Zm8.75,0H563.5a1.728,1.728,0,1,0,0,3.455h1.75A1.728,1.728,0,1,0,565.25,310.727Zm10.5,0h-3.5a1.728,1.728,0,1,0,0,3.455h3.5A1.728,1.728,0,1,0,575.75,310.727Zm5.757,0.5a1.737,1.737,0,0,0,0,2.453,1.791,1.791,0,0,0,2.485,0,1.735,1.735,0,0,0,0-2.453A1.85,1.85,0,0,0,581.507,311.228ZM616,295.182a12.287,12.287,0,0,0-6.125,1.635,12.091,12.091,0,1,0,0,20.911A12.136,12.136,0,1,0,616,295.182Zm-3.5,12.091a8.548,8.548,0,0,1-2.625,6.152,8.523,8.523,0,0,1,0-12.305A8.549,8.549,0,0,1,612.5,307.273Zm-17.5,0a8.71,8.71,0,0,1,11.877-8.041,11.9,11.9,0,0,0,0,16.081A8.71,8.71,0,0,1,595,307.273Zm21,8.636a8.759,8.759,0,0,1-3.127-.6,11.9,11.9,0,0,0,0-16.081A8.651,8.651,0,1,1,616,315.909ZM546.446,290h23.608A3.926,3.926,0,0,0,574,286.105V269.713a3.926,3.926,0,0,0-3.946-3.9H546.446a3.926,3.926,0,0,0-3.946,3.9v16.392A3.926,3.926,0,0,0,546.446,290ZM553,279.636h-7v-3.454h7v3.454Zm-7,6.469v-3.014h7v3.014a3.791,3.791,0,0,0,.045.44h-6.6A0.443,0.443,0,0,1,546,286.105Zm24.5-6.469h-7v-3.014a0.443,0.443,0,0,1,.446-0.44h6.108a3.894,3.894,0,0,0,.446-0.045v3.5Zm-0.446,6.909h-6.6a3.585,3.585,0,0,0,.046-0.44v-3.014h7v3.014A0.443,0.443,0,0,1,570.054,286.545Zm0-17.272a0.443,0.443,0,0,1,.446.44v2.574a0.443,0.443,0,0,1-.446.44h-6.108a3.926,3.926,0,0,0-3.946,3.9v9.483a0.443,0.443,0,0,1-.446.44h-2.608a0.443,0.443,0,0,1-.446-0.44V269.713a0.442,0.442,0,0,1,.446-0.44h13.108Zm-23.608,0h6.6a3.768,3.768,0,0,0-.045.44v3.014h-7v-3.014A0.442,0.442,0,0,1,546.446,269.273Z" transform="translate(-532 -252)"/>
</svg>
