<?xml version="1.0" encoding="iso-8859-1"?>
<!-- Generator: Adobe Illustrator 19.0.0, SVG Export Plug-In . SVG Version: 6.00 Build 0)  -->
<svg xmlns="http://www.w3.org/2000/svg" xmlns:xlink="http://www.w3.org/1999/xlink" version="1.1" id="Layer_1" x="0px" y="0px" viewBox="0 0 490 490" style="enable-background:new 0 0 490 490;" xml:space="preserve" width="512px" height="512px">

			<path d="M480,325h-5V45c0-5.523-4.477-10-10-10H300V10c0-5.523-4.477-10-10-10h-90c-5.523,0-10,4.477-10,10v25H25     c-5.523,0-10,4.477-10,10v280h-5c-5.523,0-10,4.477-10,10v35c0,5.523,4.477,10,10,10h152.338l-50.913,84.855l17.149,10.29     L185.662,380H235v110h20V380h49.338l57.087,95.145l17.149-10.29L327.662,380H480c5.523,0,10-4.477,10-10v-35     C490,329.477,485.523,325,480,325z M210,20h70v15h-70V20z M35,55h420v270H35V55z M470,360H20v-15h450V360z" fill="#555"/>
			<path d="M190,200h-50c-5.523,0-10,4.477-10,10v80c0,5.523,4.477,10,10,10h50c5.523,0,10-4.477,10-10v-80     C200,204.477,195.523,200,190,200z M180,280h-30v-25h30V280z M180,235h-30v-15h30V235z" fill="#555"/>
			<path d="M270,140h-50c-5.523,0-10,4.477-10,10v140c0,5.523,4.477,10,10,10h50c5.523,0,10-4.477,10-10V150     C280,144.477,275.523,140,270,140z M260,280h-30v-85h30V280z M260,175h-30v-15h30V175z" fill="#555"/>
			<path d="M350,80h-50c-5.523,0-10,4.477-10,10v200c0,5.523,4.477,10,10,10h50c5.523,0,10-4.477,10-10V90     C360,84.477,355.523,80,350,80z M340,280h-30V135h30V280z M340,115h-30v-15h30V115z" fill="#555"/>
			<rect x="65" y="80" width="55" height="20" fill="#555"/>
			<rect x="65" y="110" width="110" height="20" fill="#555"/>
			<rect x="65" y="140" width="80" height="20" fill="#555"/>
			<rect x="155" y="80" width="20" height="20" fill="#555"/>
</svg>
