<svg xmlns="http://www.w3.org/2000/svg" width="38" height="38" viewBox="0 0 31 31">
  <path id="SETUP" class="cls-1" d="M20.5,12.926A3.574,3.574,0,1,0,24.074,16.5,3.578,3.578,0,0,0,20.5,12.926Zm0,5.913A2.339,2.339,0,1,1,22.839,16.5,2.342,2.342,0,0,1,20.5,18.839Zm14.882-5.72h-3.44a11.851,11.851,0,0,0-.961-2.318l2.433-2.433a0.618,0.618,0,0,0,0-.873L29.506,3.585a0.618,0.618,0,0,0-.873,0L26.2,6.018a11.848,11.848,0,0,0-2.318-.961V1.617A0.617,0.617,0,0,0,23.264,1H17.736a0.618,0.618,0,0,0-.617.618v3.44a11.848,11.848,0,0,0-2.318.961L12.367,3.585a0.618,0.618,0,0,0-.873,0L7.586,7.494a0.617,0.617,0,0,0,0,.873L10.018,10.8a11.857,11.857,0,0,0-.961,2.319H5.617A0.617,0.617,0,0,0,5,13.736v5.528a0.618,0.618,0,0,0,.618.617h3.44a11.853,11.853,0,0,0,.961,2.319L7.586,24.632a0.618,0.618,0,0,0,0,.873l3.909,3.909a0.617,0.617,0,0,0,.873,0L14.8,26.982a11.853,11.853,0,0,0,2.319.961v3.44a0.618,0.618,0,0,0,.617.618h5.528a0.618,0.618,0,0,0,.617-0.618v-3.44a11.85,11.85,0,0,0,2.319-.961l2.433,2.433a0.617,0.617,0,0,0,.873,0l3.909-3.908a0.618,0.618,0,0,0,0-.873L30.982,22.2a11.859,11.859,0,0,0,.961-2.318h3.44A0.618,0.618,0,0,0,36,19.264V13.736A0.618,0.618,0,0,0,35.382,13.119Zm-0.617,5.528H31.471a0.617,0.617,0,0,0-.6.467,10.622,10.622,0,0,1-1.191,2.872,0.617,0.617,0,0,0,.093.754l2.33,2.33L29.069,28.1l-2.329-2.33a0.618,0.618,0,0,0-.754-0.093,10.624,10.624,0,0,1-2.872,1.191,0.618,0.618,0,0,0-.467.6v3.294H18.354V27.471a0.617,0.617,0,0,0-.467-0.6,10.618,10.618,0,0,1-2.872-1.191,0.618,0.618,0,0,0-.754.093L11.931,28.1,8.9,25.069l2.33-2.33a0.618,0.618,0,0,0,.093-0.754,10.629,10.629,0,0,1-1.191-2.872,0.618,0.618,0,0,0-.6-0.467H6.235V14.353H9.528a0.617,0.617,0,0,0,.6-0.467,10.622,10.622,0,0,1,1.191-2.872,0.617,0.617,0,0,0-.093-0.754L8.9,7.93,11.931,4.9l2.33,2.33a0.617,0.617,0,0,0,.754.093,10.623,10.623,0,0,1,2.872-1.191,0.617,0.617,0,0,0,.467-0.6V2.235h4.292V5.529a0.617,0.617,0,0,0,.467.6,10.621,10.621,0,0,1,2.872,1.191,0.617,0.617,0,0,0,.754-0.093l2.33-2.33L32.1,7.931l-2.33,2.33a0.618,0.618,0,0,0-.093.754,10.619,10.619,0,0,1,1.191,2.872,0.618,0.618,0,0,0,.6.467h3.294v4.293ZM20.5,9.9A6.595,6.595,0,1,0,27.095,16.5,6.6,6.6,0,0,0,20.5,9.9Zm0,11.955a5.36,5.36,0,1,1,5.36-5.36A5.366,5.366,0,0,1,20.5,21.86Zm0-8.934A3.574,3.574,0,1,0,24.074,16.5,3.578,3.578,0,0,0,20.5,12.926Zm0,5.913A2.339,2.339,0,1,1,22.839,16.5,2.342,2.342,0,0,1,20.5,18.839ZM28.392,12.8A8.717,8.717,0,0,0,20.5,7.784a0.617,0.617,0,1,0,0,1.235,7.516,7.516,0,0,1,6.774,4.3A0.618,0.618,0,1,0,28.392,12.8ZM29.18,15.7a0.618,0.618,0,0,0-1.23.112c0.021,0.227.031,0.458,0.031,0.686a0.618,0.618,0,1,0,1.235,0C29.216,16.234,29.2,15.966,29.18,15.7ZM20.5,23.981A7.489,7.489,0,0,1,13.019,16.5a0.618,0.618,0,0,0-1.235,0A8.726,8.726,0,0,0,20.5,25.216,0.618,0.618,0,1,0,20.5,23.981Z" transform="translate(-5 -1)"/>
</svg>
